<?xml version="1.0" encoding="UTF-8" standalone="no"?>
<!-- Created with Inkscape (http://www.inkscape.org/) -->

<svg
   version="1.1"
   id="svg1"
   width="24"
   height="24"
   viewBox="0 0 24 24"
   sodipodi:docname="por-ai.svg"
   xml:space="preserve"
   inkscape:version="1.4.2 (ebf0e940d0, 2025-05-08)"
   inkscape:export-filename="por-ai.svg"
   inkscape:export-xdpi="960"
   inkscape:export-ydpi="960"
   xmlns:inkscape="http://www.inkscape.org/namespaces/inkscape"
   xmlns:sodipodi="http://sodipodi.sourceforge.net/DTD/sodipodi-0.dtd"
   xmlns="http://www.w3.org/2000/svg"
   xmlns:svg="http://www.w3.org/2000/svg"><defs
     id="defs1"><linearGradient
       x1="22.1875"
       y1="23.0625"
       x2="5.318624"
       y2="5.3239861"
       gradientUnits="userSpaceOnUse"
       gradientTransform="scale(0.75)"
       spreadMethod="pad"
       id="linearGradient3"><stop
         style="stop-opacity:1;stop-color:#000000"
         offset="0"
         id="stop1" /><stop
         style="stop-opacity:1;stop-color:#333333"
         offset="0.997054"
         id="stop2" /><stop
         style="stop-opacity:1;stop-color:#8080ff"
         offset="1"
         id="stop3" /></linearGradient><clipPath
       clipPathUnits="userSpaceOnUse"
       id="clipPath5"><rect
         x="7.8612243e-07"
         width="283"
         y="-3.6150325e-07"
         height="338"
         id="rect6"
         style="stroke-width:1" /></clipPath></defs><sodipodi:namedview
     id="namedview1"
     pagecolor="#ffffff"
     bordercolor="#000000"
     borderopacity="0.25"
     inkscape:showpageshadow="2"
     inkscape:pageopacity="0.0"
     inkscape:pagecheckerboard="0"
     inkscape:deskcolor="#d1d1d1"
     inkscape:zoom="5.7484473"
     inkscape:cx="-32.704483"
     inkscape:cy="3.3922203"
     inkscape:window-width="1920"
     inkscape:window-height="1005"
     inkscape:window-x="0"
     inkscape:window-y="0"
     inkscape:window-maximized="1"
     inkscape:current-layer="g1"><inkscape:page
       x="0"
       y="0"
       width="24"
       height="24"
       id="page2"
       margin="0"
       bleed="0" /></sodipodi:namedview><g
     id="g1"
     inkscape:groupmode="layer"
     inkscape:label="1"><path
       id="path3"
       d="m 5.699,0.75 h 6.602 c 2.742,0 4.949,2.207 4.949,4.949 v 6.602 c 0,2.742 -2.207,4.949 -4.949,4.949 H 5.699 C 2.957,17.25 0.75,15.043 0.75,12.301 V 5.699 C 0.75,2.957 2.957,0.75 5.699,0.75 Z"
       style="fill:url(#linearGradient3);stroke:none"
       transform="scale(1.3333333)" /><g
       clip-path="url(#clipPath5)"
       id="g12"
       style="fill:#c8ff00;fill-opacity:1"
       transform="matrix(0.05289666,0,0,0.05289666,4.892941,2.549681)"><path
         fill="#000000"
         d="m 216.26172,321.83594 c -20.70703,0 -37.55469,-16.85938 -37.55469,-37.58203 0,-4.83985 0.91797,-9.46875 2.59375,-13.72266 1.83984,-4.67969 4.59375,-8.90625 8.03516,-12.44922 6.83203,-7.03516 16.375,-11.41016 26.92578,-11.41016 20.70703,0 37.55469,16.85547 37.55469,37.58204 0,20.72265 -16.84766,37.58203 -37.55469,37.58203 z M 52.453125,216.23828 c -20.707031,0 -37.554687,-16.85937 -37.554687,-37.58203 0,-20.72266 16.847656,-37.58203 37.554687,-37.58203 10.550781,0 20.097656,4.375 26.925781,11.41015 3.445313,3.54297 6.195313,7.76954 8.035156,12.44922 1.675782,4.25391 2.59375,8.88282 2.59375,13.72266 0,4.83984 -0.917968,9.46484 -2.59375,13.71875 -1.839843,4.67969 -4.589843,8.90625 -8.035156,12.45312 -6.828125,7.03516 -16.375,11.41016 -26.925781,11.41016 z M 178.70703,73.058594 c 0,-20.722656 16.84766,-37.582032 37.55469,-37.582032 20.70703,0 37.55469,16.859376 37.55469,37.582032 0,20.722656 -16.84766,37.582036 -37.55469,37.582036 -10.55078,0 -20.09375,-4.375 -26.92578,-11.410161 -3.44141,-3.546875 -6.19532,-7.773438 -8.03516,-12.449219 -1.67578,-4.253906 -2.59375,-8.882812 -2.59375,-13.722656 z m 37.55469,158.789066 c -13.98828,0 -27.13672,5.45312 -37.02735,15.34765 -0.88671,0.88672 -1.73437,1.79688 -2.54296,2.73047 l -76.6211,-49.39062 c 3.10938,-6.77344 4.75,-14.19922 4.75,-21.87891 0,-7.67969 -1.64062,-15.10547 -4.75,-21.87891 l 76.6211,-49.39062 c 0.80859,0.93359 1.65625,1.84375 2.54296,2.73047 9.89063,9.89453 23.03907,15.34765 37.02735,15.34765 13.98828,0 27.14062,-5.45312 37.03125,-15.34765 9.88672,-9.89844 15.33594,-23.058596 15.33594,-37.058596 0,-14 -5.44922,-27.160156 -15.33594,-37.058594 -9.89063,-9.894531 -23.04297,-15.347656 -37.03125,-15.347656 -13.98828,0 -27.13672,5.453125 -37.02735,15.347656 -9.89062,9.898438 -15.33984,23.058594 -15.33984,37.058594 0,7.679687 1.64063,15.105468 4.75391,21.878906 l -76.625002,49.39062 c -0.808594,-0.93359 -1.65625,-1.84765 -2.542969,-2.73046 C 79.59375,131.69922 66.441406,126.25 52.453125,126.25 c -13.988281,0 -27.136719,5.44922 -37.03125,15.34766 -9.886719,9.89843 -15.3359375,23.05859 -15.3359375,37.05859 0,14 5.4492185,27.15625 15.3359375,37.05859 9.894531,9.89453 23.042969,15.34766 37.03125,15.34766 13.988281,0 27.140625,-5.45313 37.027344,-15.34766 0.886719,-0.88672 1.734375,-1.79687 2.542969,-2.73437 L 168.64844,262.375 c -3.11328,6.77344 -4.75391,14.19922 -4.75391,21.87891 0,13.99609 5.44922,27.15625 15.33984,37.05859 9.89063,9.89453 23.03907,15.34766 37.02735,15.34766 13.98828,0 27.14062,-5.45313 37.03125,-15.34766 9.88672,-9.90234 15.33594,-23.0625 15.33594,-37.05859 0,-14 -5.44922,-27.16016 -15.33594,-37.0586 -9.89063,-9.89453 -23.04297,-15.34765 -37.03125,-15.34765"
         fill-opacity="1"
         fill-rule="nonzero"
         id="path12"
         style="fill:#c8ff00;fill-opacity:1" /></g></g></svg>
