<?xml version="1.0" encoding="UTF-8" standalone="no"?>
<!-- Created with Inkscape (http://www.inkscape.org/) -->

<svg
   version="1.1"
   id="svg1"
   width="24"
   height="24"
   viewBox="0 0 24 24"
   sodipodi:docname="io.github.narayanls.steampass.app.svg"
   xml:space="preserve"
   inkscape:version="1.4.2 (ebf0e940d0, 2025-05-08)"
   inkscape:export-filename="steam-pass-3.svg"
   inkscape:export-xdpi="960"
   inkscape:export-ydpi="960"
   xmlns:inkscape="http://www.inkscape.org/namespaces/inkscape"
   xmlns:sodipodi="http://sodipodi.sourceforge.net/DTD/sodipodi-0.dtd"
   xmlns="http://www.w3.org/2000/svg"
   xmlns:svg="http://www.w3.org/2000/svg"><defs
     id="defs1"><linearGradient
       x1="22.1875"
       y1="23.0625"
       x2="5.318624"
       y2="5.3239861"
       gradientUnits="userSpaceOnUse"
       gradientTransform="scale(0.75)"
       spreadMethod="pad"
       id="linearGradient3"><stop
         style="stop-opacity:1;stop-color:#cccccc"
         offset="0"
         id="stop1" /><stop
         style="stop-opacity:1;stop-color:#ececec"
         offset="0.997054"
         id="stop2" /><stop
         style="stop-opacity:1;stop-color:#2d1650"
         offset="1"
         id="stop3" /></linearGradient></defs><sodipodi:namedview
     id="namedview1"
     pagecolor="#ffffff"
     bordercolor="#000000"
     borderopacity="0.25"
     inkscape:showpageshadow="2"
     inkscape:pageopacity="0.0"
     inkscape:pagecheckerboard="0"
     inkscape:deskcolor="#d1d1d1"
     inkscape:zoom="5.7484473"
     inkscape:cx="-32.704483"
     inkscape:cy="3.3922203"
     inkscape:window-width="1920"
     inkscape:window-height="1005"
     inkscape:window-x="0"
     inkscape:window-y="0"
     inkscape:window-maximized="1"
     inkscape:current-layer="g1"><inkscape:page
       x="0"
       y="0"
       width="24"
       height="24"
       id="page2"
       margin="0"
       bleed="0" /></sodipodi:namedview><g
     id="g1"
     inkscape:groupmode="layer"
     inkscape:label="1"><path
       id="path3"
       d="m 5.699,0.75 h 6.602 c 2.742,0 4.949,2.207 4.949,4.949 v 6.602 c 0,2.742 -2.207,4.949 -4.949,4.949 H 5.699 C 2.957,17.25 0.75,15.043 0.75,12.301 V 5.699 C 0.75,2.957 2.957,0.75 5.699,0.75 Z"
       style="fill:url(#linearGradient3);stroke:none"
       transform="scale(1.3333333)" /><path
       style="fill:#2d1650;stroke:none"
       d="m 15.287919,4.9857735 v 1.342567 c -0.456905,0 -0.911666,-0.04639 -1.369966,-0.02632 -1.320519,0.05783 -2.592897,0.361326 -3.753708,1.008911 -1.7945328,1.001124 -3.2070818,2.438721 -5.2332698,3.0019385 -0.38425,0.106809 -0.804828,0.226693 -1.20557,0.234966 v 2.904328 c 0.86128,0.160467 1.76426,0.337211 2.548137,0.748555 1.509557,0.792149 2.751191,2.038159 4.3016928,2.750101 1.506192,0.691597 2.984567,0.720839 4.603086,0.720839 v 1.342567 l 1.698758,-0.963099 3.315318,-1.91383 c -0.195514,-0.183076 -0.480401,-0.301127 -0.712382,-0.434287 -0.411646,-0.236289 -0.820739,-0.477063 -1.23297,-0.712362 -1.005726,-0.574063 -2.0057,-1.299614 -3.068724,-1.757679 v 1.534363 c -1.208415,0 -2.367471,0.06291 -3.479714,-0.514667 C 10.871775,13.823299 10.134783,13.211682 9.3696652,12.684287 9.0590062,12.470149 8.7187282,12.169658 8.3558902,12.0548 V 12 c 0.580454,-0.170742 1.154953,-0.710819 1.6439596,-1.056946 1.1114782,-0.786724 2.1223652,-1.5207225 3.5071132,-1.6907875 0.432119,-0.05307 0.855097,-0.03962 1.287768,-0.02068 0.120242,0.0053 0.387226,-0.052 0.465027,0.06459 0.06794,0.101812 0.02816,0.312281 0.02816,0.429678 V 10.76703 l 2.411141,-1.3857385 2.575536,-1.491191 v -0.0274 l -2.712533,-1.573389 z"
       id="path1" /></g></svg>
